<?xml version="1.0" encoding="UTF-8" standalone="no"?>
<!-- Created with Inkscape (http://www.inkscape.org/) -->

<svg
   width="600mm"
   height="600mm"
   viewBox="0 0 600 600"
   version="1.1"
   id="svg5"
   sodipodi:docname="mmrm_hex.svg"
   inkscape:version="1.2.1 (9c6d41e, 2022-07-14)"
   inkscape:export-filename="mmrm_hex.png"
   inkscape:export-xdpi="96"
   inkscape:export-ydpi="96"
   xmlns:inkscape="http://www.inkscape.org/namespaces/inkscape"
   xmlns:sodipodi="http://sodipodi.sourceforge.net/DTD/sodipodi-0.dtd"
   xmlns="http://www.w3.org/2000/svg"
   xmlns:svg="http://www.w3.org/2000/svg">
  <sodipodi:namedview
     id="namedview7"
     pagecolor="#505050"
     bordercolor="#ffffff"
     borderopacity="1"
     inkscape:showpageshadow="0"
     inkscape:pageopacity="0"
     inkscape:pagecheckerboard="1"
     inkscape:deskcolor="#505050"
     inkscape:document-units="mm"
     showgrid="false"
     showguides="true"
     inkscape:zoom="0.27126857"
     inkscape:cx="1164.8972"
     inkscape:cy="1155.6812"
     inkscape:window-width="1440"
     inkscape:window-height="847"
     inkscape:window-x="0"
     inkscape:window-y="25"
     inkscape:window-maximized="0"
     inkscape:current-layer="layer1" />
  <defs
     id="defs2">
    <rect
       x="-582.4486"
       y="-224.8694"
       width="434.99326"
       height="180.6328"
       id="rect1157" />
    <rect
       x="-707.78565"
       y="140.08258"
       width="1161.2108"
       height="1172.27"
       id="rect1046" />
  </defs>
  <g
     inkscape:label="Layer 1"
     inkscape:groupmode="layer"
     id="layer1">
    <path
       sodipodi:type="star"
       style="fill:#ffffff;fill-opacity:1;stroke:#000000;stroke-width:5.20284;stroke-dasharray:none;stroke-opacity:1"
       id="path333"
       inkscape:flatsided="true"
       sodipodi:sides="6"
       sodipodi:cx="-112.00423"
       sodipodi:cy="-1.2584745"
       sodipodi:r1="111.48693"
       sodipodi:r2="96.550507"
       sodipodi:arg1="0.52359878"
       sodipodi:arg2="1.0471976"
       inkscape:rounded="0"
       inkscape:randomized="0"
       d="m -15.453713,54.484991 -96.550517,55.743469 -96.55051,-55.743469 0,-111.486931 96.55051,-55.74347 96.550518,55.743471 z"
       transform="matrix(2.6202996,0,0,2.6202996,593.48463,303.29758)"
       sodipodi:insensitive="true" />
    <g
       id="g879"
       transform="matrix(1.326047,0,0,1.326047,-98.6096,-58.36638)">
      <path
         d="m 174.70969,220.27684 v -27.32457 h 6.30159 v 4.02455 h 0.37069 q 0.63545,-1.90637 1.80045,-3.28319 1.21796,-1.37682 3.3891,-1.37682 3.97159,0 4.87182,4.66001 h 0.31773 q 0.31773,-0.95319 0.79432,-1.80046 0.47659,-0.84727 1.165,-1.48273 0.68841,-0.63545 1.64159,-1.00614 0.95318,-0.37068 2.22409,-0.37068 5.7191,0 5.7191,8.41978 v 19.54025 h -6.3016 v -18.74593 q 0,-1.90636 -0.68841,-2.64773 -0.63545,-0.79432 -1.69454,-0.79432 -1.00614,0 -1.74751,0.68841 -0.68841,0.63546 -0.68841,2.01228 v 19.48729 h -6.35455 v -18.74593 q 0,-1.90636 -0.63545,-2.64773 -0.5825,-0.79432 -1.6416,-0.79432 -1.05909,0 -1.80045,0.68841 -0.74137,0.63546 -0.74137,2.01228 v 19.48729 z"
         style="font-weight:bold;font-size:52.9546px;font-family:'IBM Plex Mono';-inkscape-font-specification:'IBM Plex Mono Bold';fill:#000000;stroke:none;stroke-width:2.39963"
         id="path7271" />
      <path
         d="m 222.47466,189.45726 q -2.64773,0 -3.70683,-1.05909 -1.00613,-1.11205 -1.00613,-2.64773 v -1.53568 q 0,-1.58864 1.00613,-2.64773 1.0591,-1.0591 3.70683,-1.0591 2.64773,0 3.65386,1.0591 1.0591,1.05909 1.0591,2.64773 v 1.53568 q 0,1.53568 -1.0591,2.64773 -1.00613,1.05909 -3.65386,1.05909 z m -12.6032,24.7298 h 8.68456 v -15.14501 h -8.68456 v -6.08978 h 16.52184 v 21.23479 h 8.0491 v 6.08978 h -24.57094 z"
         style="font-weight:bold;font-size:52.9546px;font-family:'IBM Plex Mono';-inkscape-font-specification:'IBM Plex Mono Bold';fill:#ff2951;fill-opacity:1;stroke:none;stroke-width:2.39963"
         id="path7273" />
      <path
         d="m 237.88436,220.27684 10.22024,-13.87411 -9.53183,-13.45046 h 8.94933 l 2.9125,4.39523 2.2241,3.54796 h 0.42363 l 2.27705,-3.54796 2.96546,-4.39523 h 8.20796 l -9.53182,13.02683 10.22023,14.29774 h -9.00228 l -3.44205,-5.1366 -2.38295,-3.65386 h -0.42364 l -2.33,3.65386 -3.49501,5.1366 z"
         style="font-weight:bold;font-size:52.9546px;font-family:'IBM Plex Mono';-inkscape-font-specification:'IBM Plex Mono Bold';fill:#ff2951;fill-opacity:1;stroke:none;stroke-width:2.39963"
         id="path7275" />
      <path
         d="m 285.06683,220.9123 q -6.8841,0 -10.43205,-3.81274 -3.54796,-3.81273 -3.54796,-10.3791 0,-3.33614 0.90023,-5.98387 0.95318,-2.70068 2.64773,-4.55409 1.7475,-1.90637 4.18341,-2.85955 2.48887,-1.00614 5.56023,-1.00614 3.07137,0 5.50728,1.00614 2.43591,0.95318 4.13046,2.75364 1.69455,1.80045 2.59477,4.39523 0.95319,2.54182 0.95319,5.7191 v 2.33 h -18.69298 v 0.47659 q 0,2.64773 1.6416,4.28932 1.64159,1.58864 4.81886,1.58864 2.43592,0 4.18342,-0.90023 1.7475,-0.95318 3.01841,-2.48886 l 4.23637,4.60705 q -1.58864,1.95932 -4.44819,3.38909 -2.85955,1.42978 -7.25478,1.42978 z M 284.43138,197.93 q -2.54182,0 -4.07751,1.58864 -1.48273,1.53568 -1.48273,4.18341 v 0.42364 h 11.01456 v -0.42364 q 0,-2.70068 -1.48273,-4.23637 Q 286.9732,197.93 284.43138,197.93 Z"
         style="font-weight:bold;font-size:52.9546px;font-family:'IBM Plex Mono';-inkscape-font-specification:'IBM Plex Mono Bold';fill:#ff2951;fill-opacity:1;stroke:none;stroke-width:2.39963"
         id="path7277" />
      <path
         d="m 321.02293,215.29911 h -0.37068 q -1.0591,2.48886 -2.96546,4.0775 -1.85341,1.53569 -5.1366,1.53569 -2.27705,0 -4.18341,-0.84728 -1.85341,-0.84727 -3.23023,-2.59477 -1.32387,-1.74751 -2.11819,-4.44819 -0.74136,-2.70068 -0.74136,-6.40751 0,-3.70682 0.74136,-6.4075 0.79432,-2.70069 2.11819,-4.44819 1.37682,-1.7475 3.23023,-2.59478 1.90636,-0.84727 4.18341,-0.84727 1.64159,0 2.9125,0.42364 1.27091,0.42363 2.2241,1.165 1.00613,0.74136 1.69454,1.80046 0.74137,1.00613 1.27092,2.22409 h 0.37068 v -16.83956 h 7.83728 v 39.1864 h -7.83728 z m -5.08364,-0.47659 q 2.06523,0 3.54795,-1.00614 1.53569,-1.00614 1.53569,-3.17728 V 202.59 q 0,-2.17114 -1.53569,-3.17727 -1.48272,-1.00614 -3.54795,-1.00614 -2.64773,0 -4.07751,1.64159 -1.42977,1.58864 -1.42977,4.44819 v 4.23637 q 0,2.85955 1.42977,4.50114 1.42978,1.58864 4.07751,1.58864 z"
         style="font-weight:bold;font-size:52.9546px;font-family:'IBM Plex Mono';-inkscape-font-specification:'IBM Plex Mono Bold';fill:#ff2951;fill-opacity:1;stroke:none;stroke-width:2.39963"
         id="path7279" />
    </g>
    <g
       id="g889"
       transform="matrix(1.326047,0,0,1.326047,-98.6096,-83.572747)">
      <path
         d="m 174.70969,286.47009 v -27.32457 h 6.30159 v 4.02455 h 0.37069 q 0.63545,-1.90637 1.80045,-3.28319 1.21796,-1.37682 3.3891,-1.37682 3.97159,0 4.87182,4.66001 h 0.31773 q 0.31773,-0.95319 0.79432,-1.80046 0.47659,-0.84727 1.165,-1.48273 0.68841,-0.63545 1.64159,-1.00614 0.95318,-0.37068 2.22409,-0.37068 5.7191,0 5.7191,8.41978 v 19.54025 h -6.3016 v -18.74593 q 0,-1.90636 -0.68841,-2.64773 -0.63545,-0.79432 -1.69454,-0.79432 -1.00614,0 -1.74751,0.68841 -0.68841,0.63546 -0.68841,2.01228 v 19.48729 h -6.35455 v -18.74593 q 0,-1.90636 -0.63545,-2.64773 -0.5825,-0.79432 -1.6416,-0.79432 -1.05909,0 -1.80045,0.68841 -0.74137,0.63546 -0.74137,2.01228 v 19.48729 z"
         style="font-weight:bold;font-size:52.9546px;font-family:'IBM Plex Mono';-inkscape-font-specification:'IBM Plex Mono Bold';fill:#000000;stroke:none;stroke-width:2.39963"
         id="path7281" />
      <path
         d="m 220.78011,287.10555 q -3.17728,0 -5.7191,-0.95319 -2.54182,-1.00613 -4.34228,-2.85954 -1.7475,-1.85342 -2.70068,-4.50115 -0.95318,-2.64773 -0.95318,-5.98387 0,-3.33614 0.95318,-5.98387 0.95318,-2.64773 2.70068,-4.50114 1.80046,-1.85341 4.34228,-2.80659 2.54182,-1.00614 5.7191,-1.00614 3.17727,0 5.7191,1.00614 2.54182,0.95318 4.28932,2.80659 1.80045,1.85341 2.75364,4.50114 0.95318,2.64773 0.95318,5.98387 0,3.33614 -0.95318,5.98387 -0.95319,2.64773 -2.75364,4.50115 -1.7475,1.85341 -4.28932,2.85954 -2.54183,0.95319 -5.7191,0.95319 z m 0,-5.82501 q 2.64773,0 4.13046,-1.64159 1.48273,-1.64159 1.48273,-4.66001 v -4.34227 q 0,-3.01842 -1.48273,-4.66001 -1.48273,-1.64159 -4.13046,-1.64159 -2.64773,0 -4.13046,1.64159 -1.48273,1.64159 -1.48273,4.66001 v 4.34227 q 0,3.01842 1.48273,4.66001 1.48273,1.64159 4.13046,1.64159 z"
         style="font-weight:bold;font-size:52.9546px;font-family:'IBM Plex Mono';-inkscape-font-specification:'IBM Plex Mono Bold';fill:#2995ff;fill-opacity:1;stroke:none;stroke-width:2.39963"
         id="path7283" />
      <path
         d="m 257.47757,281.49236 h -0.37069 q -1.05909,2.48887 -2.96545,4.0775 -1.85341,1.53569 -5.1366,1.53569 -2.27705,0 -4.18341,-0.84728 -1.85341,-0.84727 -3.23023,-2.59477 -1.32387,-1.7475 -2.11819,-4.44819 -0.74136,-2.70068 -0.74136,-6.40751 0,-3.70682 0.74136,-6.4075 0.79432,-2.70069 2.11819,-4.44819 1.37682,-1.7475 3.23023,-2.59477 1.90636,-0.84728 4.18341,-0.84728 1.64159,0 2.9125,0.42364 1.27091,0.42364 2.2241,1.165 1.00613,0.74136 1.69454,1.80046 0.74137,1.00613 1.27091,2.22409 h 0.37069 v -16.83956 h 7.83728 v 39.1864 h -7.83728 z m -5.08364,-0.47659 q 2.06522,0 3.54795,-1.00614 1.53569,-1.00614 1.53569,-3.17728 v -8.0491 q 0,-2.17113 -1.53569,-3.17727 -1.48273,-1.00614 -3.54795,-1.00614 -2.64773,0 -4.07751,1.64159 -1.42977,1.58864 -1.42977,4.44819 v 4.23637 q 0,2.85955 1.42977,4.50114 1.42978,1.58864 4.07751,1.58864 z"
         style="font-weight:bold;font-size:52.9546px;font-family:'IBM Plex Mono';-inkscape-font-specification:'IBM Plex Mono Bold';fill:#2995ff;fill-opacity:1;stroke:none;stroke-width:2.39963"
         id="path7285" />
      <path
         d="m 285.06683,287.10555 q -6.8841,0 -10.43205,-3.81273 -3.54796,-3.81274 -3.54796,-10.37911 0,-3.33614 0.90023,-5.98387 0.95318,-2.70068 2.64773,-4.55409 1.7475,-1.90637 4.18341,-2.85955 2.48887,-1.00614 5.56023,-1.00614 3.07137,0 5.50728,1.00614 2.43591,0.95318 4.13046,2.75364 1.69455,1.80046 2.59477,4.39523 0.95319,2.54182 0.95319,5.7191 v 2.33 h -18.69298 v 0.47659 q 0,2.64773 1.6416,4.28932 1.64159,1.58864 4.81886,1.58864 2.43592,0 4.18342,-0.90023 1.7475,-0.95318 3.01841,-2.48886 l 4.23637,4.60705 q -1.58864,1.95932 -4.44819,3.38909 -2.85955,1.42978 -7.25478,1.42978 z m -0.63545,-22.9823 q -2.54182,0 -4.07751,1.58864 -1.48273,1.53568 -1.48273,4.18341 v 0.42364 h 11.01456 v -0.42364 q 0,-2.70068 -1.48273,-4.23637 -1.42977,-1.53568 -3.97159,-1.53568 z"
         style="font-weight:bold;font-size:52.9546px;font-family:'IBM Plex Mono';-inkscape-font-specification:'IBM Plex Mono Bold';fill:#2995ff;fill-opacity:1;stroke:none;stroke-width:2.39963"
         id="path7287" />
      <path
         d="m 303.81268,280.38031 h 8.36683 v -27.00684 h -8.36683 v -6.08978 h 16.20411 v 33.09662 h 8.36683 v 6.08978 h -24.57094 z"
         style="font-weight:bold;font-size:52.9546px;font-family:'IBM Plex Mono';-inkscape-font-specification:'IBM Plex Mono Bold';fill:#2995ff;fill-opacity:1;stroke:none;stroke-width:2.39963"
         id="path7289" />
    </g>
    <g
       id="g899"
       transform="matrix(1.326047,0,0,1.326047,-101.69929,-108.77911)">
      <path
         d="m 177.03969,346.57356 h 6.3016 v -15.14501 h -6.3016 v -6.08978 h 14.13888 v 7.73137 h 0.37068 q 0.37068,-1.48273 1.00614,-2.85955 0.68841,-1.42977 1.69454,-2.48886 1.0591,-1.11205 2.54182,-1.74751 1.48273,-0.63545 3.49501,-0.63545 h 2.59477 v 7.20182 h -5.825 q -2.91251,0 -4.39523,1.74751 -1.48273,1.69454 -1.48273,4.18341 v 8.10205 h 9.00228 v 6.08978 h -23.14116 z"
         style="font-weight:bold;font-size:52.9546px;font-family:'IBM Plex Mono';-inkscape-font-specification:'IBM Plex Mono Bold';fill:#000000;stroke:none;stroke-width:2.39963"
         id="path7297" />
      <path
         d="m 221.52147,353.2988 q -6.8841,0 -10.43205,-3.81273 -3.54796,-3.81273 -3.54796,-10.3791 0,-3.33614 0.90023,-5.98387 0.95318,-2.70069 2.64773,-4.5541 1.7475,-1.90637 4.18341,-2.85955 2.48887,-1.00614 5.56023,-1.00614 3.07137,0 5.50728,1.00614 2.43591,0.95318 4.13046,2.75364 1.69455,1.80046 2.59478,4.39523 0.95318,2.54182 0.95318,5.7191 v 2.33 h -18.69298 v 0.47659 q 0,2.64773 1.6416,4.28933 1.64159,1.58863 4.81887,1.58863 2.43591,0 4.18341,-0.90022 1.7475,-0.95319 3.01841,-2.48887 l 4.23637,4.60705 q -1.58864,1.95932 -4.44819,3.38909 -2.85955,1.42978 -7.25478,1.42978 z m -0.63545,-22.9823 q -2.54182,0 -4.07751,1.58864 -1.48273,1.53568 -1.48273,4.18341 v 0.42364 h 11.01456 v -0.42364 q 0,-2.70068 -1.48273,-4.23636 -1.42977,-1.53569 -3.97159,-1.53569 z"
         style="font-weight:bold;font-size:52.9546px;font-family:'IBM Plex Mono';-inkscape-font-specification:'IBM Plex Mono Bold';fill:#81832b;fill-opacity:1;stroke:none;stroke-width:2.39963"
         id="path7299" />
      <path
         d="m 239.79073,325.33877 h 7.83728 v 4.97773 h 0.37068 q 1.00614,-2.43591 2.91251,-4.02455 1.90636,-1.58864 5.18955,-1.58864 2.27705,0 4.13046,0.84728 1.90636,0.84727 3.23023,2.59477 1.37682,1.7475 2.11818,4.44819 0.79432,2.70068 0.79432,6.40751 0,3.70682 -0.79432,6.4075 -0.74136,2.70069 -2.11818,4.44819 -1.32387,1.7475 -3.23023,2.59478 -1.85341,0.84727 -4.13046,0.84727 -3.28319,0 -5.18955,-1.53568 -1.90637,-1.58864 -2.91251,-4.07751 h -0.37068 v 15.56865 h -7.83728 z m 12.92092,21.87025 q 2.64773,0 4.07751,-1.58864 1.42977,-1.64159 1.42977,-4.50114 v -4.23637 q 0,-2.85955 -1.42977,-4.44818 -1.42978,-1.6416 -4.07751,-1.6416 -2.06523,0 -3.60091,1.00614 -1.48273,1.00614 -1.48273,3.17728 v 8.0491 q 0,2.17113 1.48273,3.17727 1.53568,1.00614 3.60091,1.00614 z"
         style="font-weight:bold;font-size:52.9546px;font-family:'IBM Plex Mono';-inkscape-font-specification:'IBM Plex Mono Bold';fill:#81832b;fill-opacity:1;stroke:none;stroke-width:2.39963"
         id="path7301" />
      <path
         d="m 285.06683,353.2988 q -6.8841,0 -10.43205,-3.81273 -3.54796,-3.81273 -3.54796,-10.3791 0,-3.33614 0.90023,-5.98387 0.95318,-2.70069 2.64773,-4.5541 1.7475,-1.90637 4.18341,-2.85955 2.48887,-1.00614 5.56023,-1.00614 3.07137,0 5.50728,1.00614 2.43591,0.95318 4.13046,2.75364 1.69455,1.80046 2.59477,4.39523 0.95319,2.54182 0.95319,5.7191 v 2.33 h -18.69298 v 0.47659 q 0,2.64773 1.6416,4.28933 1.64159,1.58863 4.81886,1.58863 2.43592,0 4.18342,-0.90022 1.7475,-0.95319 3.01841,-2.48887 l 4.23637,4.60705 q -1.58864,1.95932 -4.44819,3.38909 -2.85955,1.42978 -7.25478,1.42978 z m -0.63545,-22.9823 q -2.54182,0 -4.07751,1.58864 -1.48273,1.53568 -1.48273,4.18341 v 0.42364 h 11.01456 v -0.42364 q 0,-2.70068 -1.48273,-4.23636 -1.42977,-1.53569 -3.97159,-1.53569 z"
         style="font-weight:bold;font-size:52.9546px;font-family:'IBM Plex Mono';-inkscape-font-specification:'IBM Plex Mono Bold';fill:#81832b;fill-opacity:1;stroke:none;stroke-width:2.39963"
         id="path7303" />
      <path
         d="m 326.00066,352.66334 q -2.43591,0 -3.91864,-1.21795 -1.48273,-1.27091 -1.7475,-3.60092 h -0.26478 q -0.74136,2.70069 -2.96545,4.07751 -2.17114,1.37682 -5.34842,1.37682 -3.97159,0 -6.4075,-2.11819 -2.38296,-2.17113 -2.38296,-6.03682 0,-4.28932 3.12432,-6.35455 3.12432,-2.06523 9.16115,-2.06523 h 4.39523 v -1.37682 q 0,-2.43591 -1.165,-3.65387 -1.11205,-1.27091 -3.81273,-1.27091 -2.48887,0 -4.02455,0.95318 -1.53569,0.95319 -2.64773,2.48887 l -4.28933,-3.81273 q 1.37682,-2.33 4.28933,-3.81273 2.96545,-1.53569 7.5725,-1.53569 5.61319,0 8.73751,2.59478 3.17728,2.54182 3.17728,7.73137 v 11.96774 h 3.01841 v 5.66614 z m -11.27933,-4.50114 q 2.06523,0 3.495,-1.00614 1.42978,-1.00613 1.42978,-2.9125 v -3.28318 h -4.18342 q -4.81886,0 -4.81886,3.23023 v 1.05909 q 0,1.42977 1.11204,2.17114 1.11205,0.74136 2.96546,0.74136 z"
         style="font-weight:bold;font-size:52.9546px;font-family:'IBM Plex Mono';-inkscape-font-specification:'IBM Plex Mono Bold';fill:#81832b;fill-opacity:1;stroke:none;stroke-width:2.39963"
         id="path7305" />
      <path
         d="m 349.98902,352.66334 q -4.23637,0 -6.3016,-2.22409 -2.06523,-2.22409 -2.06523,-5.66614 v -13.34456 h -7.41365 v -6.08978 h 4.81887 q 1.74751,0 2.48887,-0.68841 0.74136,-0.68841 0.74136,-2.54182 v -6.40751 h 7.20183 v 9.63774 h 10.64387 v 6.08978 h -10.64387 v 15.14501 h 10.64387 v 6.08978 z"
         style="font-weight:bold;font-size:52.9546px;font-family:'IBM Plex Mono';-inkscape-font-specification:'IBM Plex Mono Bold';fill:#81832b;fill-opacity:1;stroke:none;stroke-width:2.39963"
         id="path7307" />
      <path
         d="m 380.38487,353.2988 q -6.8841,0 -10.43206,-3.81273 -3.54795,-3.81273 -3.54795,-10.3791 0,-3.33614 0.90022,-5.98387 0.95319,-2.70069 2.64773,-4.5541 1.74751,-1.90637 4.18342,-2.85955 2.48886,-1.00614 5.56023,-1.00614 3.07137,0 5.50728,1.00614 2.43591,0.95318 4.13046,2.75364 1.69455,1.80046 2.59477,4.39523 0.95319,2.54182 0.95319,5.7191 v 2.33 h -18.69298 v 0.47659 q 0,2.64773 1.64159,4.28933 1.6416,1.58863 4.81887,1.58863 2.43592,0 4.18342,-0.90022 1.7475,-0.95319 3.01841,-2.48887 l 4.23637,4.60705 q -1.58864,1.95932 -4.44819,3.38909 -2.85955,1.42978 -7.25478,1.42978 z m -0.63545,-22.9823 q -2.54183,0 -4.07751,1.58864 -1.48273,1.53568 -1.48273,4.18341 v 0.42364 h 11.01456 v -0.42364 q 0,-2.70068 -1.48273,-4.23636 -1.42977,-1.53569 -3.97159,-1.53569 z"
         style="font-weight:bold;font-size:52.9546px;font-family:'IBM Plex Mono';-inkscape-font-specification:'IBM Plex Mono Bold';fill:#81832b;fill-opacity:1;stroke:none;stroke-width:2.39963"
         id="path7309" />
      <path
         d="m 416.34097,347.68561 h -0.37068 q -1.05909,2.48887 -2.96546,4.07751 -1.85341,1.53568 -5.13659,1.53568 -2.27705,0 -4.18342,-0.84727 -1.85341,-0.84728 -3.23023,-2.59478 -1.32386,-1.7475 -2.11818,-4.44819 -0.74136,-2.70068 -0.74136,-6.4075 0,-3.70683 0.74136,-6.40751 0.79432,-2.70069 2.11818,-4.44819 1.37682,-1.7475 3.23023,-2.59477 1.90637,-0.84728 4.18342,-0.84728 1.64159,0 2.9125,0.42364 1.27091,0.42364 2.22409,1.165 1.00614,0.74137 1.69455,1.80046 0.74137,1.00614 1.27091,2.22409 h 0.37068 v -16.83956 h 7.83728 v 39.1864 h -7.83728 z m -5.08364,-0.47659 q 2.06523,0 3.54796,-1.00614 1.53568,-1.00614 1.53568,-3.17727 v -8.0491 q 0,-2.17114 -1.53568,-3.17728 -1.48273,-1.00614 -3.54796,-1.00614 -2.64773,0 -4.0775,1.6416 -1.42978,1.58863 -1.42978,4.44818 v 4.23637 q 0,2.85955 1.42978,4.50114 1.42977,1.58864 4.0775,1.58864 z"
         style="font-weight:bold;font-size:52.9546px;font-family:'IBM Plex Mono';-inkscape-font-specification:'IBM Plex Mono Bold';fill:#81832b;fill-opacity:1;stroke:none;stroke-width:2.39963"
         id="path7311" />
    </g>
    <g
       id="g909"
       transform="matrix(1.326047,0,0,1.326047,-98.6096,-137.26179)">
      <path
         d="m 174.70969,418.8566 v -27.32458 h 6.30159 v 4.02455 h 0.37069 q 0.63545,-1.90637 1.80045,-3.28318 1.21796,-1.37682 3.3891,-1.37682 3.97159,0 4.87182,4.66 h 0.31773 q 0.31773,-0.95318 0.79432,-1.80046 0.47659,-0.84727 1.165,-1.48272 0.68841,-0.63546 1.64159,-1.00614 0.95318,-0.37068 2.22409,-0.37068 5.7191,0 5.7191,8.41978 v 19.54025 h -6.3016 v -18.74593 q 0,-1.90637 -0.68841,-2.64773 -0.63545,-0.79432 -1.69454,-0.79432 -1.00614,0 -1.74751,0.68841 -0.68841,0.63545 -0.68841,2.01227 v 19.4873 h -6.35455 v -18.74593 q 0,-1.90637 -0.63545,-2.64773 -0.5825,-0.79432 -1.6416,-0.79432 -1.05909,0 -1.80045,0.68841 -0.74137,0.63545 -0.74137,2.01227 v 19.4873 z"
         style="font-weight:bold;font-size:52.9546px;font-family:'IBM Plex Mono';-inkscape-font-specification:'IBM Plex Mono Bold';fill:#000000;stroke:none;stroke-width:2.39963"
         id="path7313" />
      <path
         d="m 221.52147,419.49205 q -6.8841,0 -10.43205,-3.81273 -3.54796,-3.81273 -3.54796,-10.3791 0,-3.33614 0.90023,-5.98387 0.95318,-2.70069 2.64773,-4.5541 1.7475,-1.90636 4.18341,-2.85955 2.48887,-1.00613 5.56023,-1.00613 3.07137,0 5.50728,1.00613 2.43591,0.95319 4.13046,2.75364 1.69455,1.80046 2.59478,4.39523 0.95318,2.54183 0.95318,5.7191 v 2.33 h -18.69298 v 0.47659 q 0,2.64774 1.6416,4.28933 1.64159,1.58864 4.81887,1.58864 2.43591,0 4.18341,-0.90023 1.7475,-0.95319 3.01841,-2.48887 l 4.23637,4.60705 q -1.58864,1.95932 -4.44819,3.3891 -2.85955,1.42977 -7.25478,1.42977 z m -0.63545,-22.9823 q -2.54182,0 -4.07751,1.58864 -1.48273,1.53568 -1.48273,4.18341 v 0.42364 h 11.01456 v -0.42364 q 0,-2.70068 -1.48273,-4.23636 -1.42977,-1.53569 -3.97159,-1.53569 z"
         style="font-weight:bold;font-size:52.9546px;font-family:'IBM Plex Mono';-inkscape-font-specification:'IBM Plex Mono Bold';fill:#ac1cf8;fill-opacity:1;stroke:none;stroke-width:2.39963"
         id="path7315" />
      <path
         d="m 262.4553,418.8566 q -2.43591,0 -3.91864,-1.21796 -1.48273,-1.27091 -1.7475,-3.60091 h -0.26478 q -0.74136,2.70068 -2.96545,4.0775 -2.17114,1.37682 -5.34842,1.37682 -3.97159,0 -6.40751,-2.11818 -2.38295,-2.17114 -2.38295,-6.03683 0,-4.28932 3.12432,-6.35455 3.12432,-2.06523 9.16115,-2.06523 h 4.39523 v -1.37682 q 0,-2.43591 -1.165,-3.65387 -1.11205,-1.27091 -3.81274,-1.27091 -2.48886,0 -4.02455,0.95319 -1.53568,0.95318 -2.64773,2.48886 l -4.28932,-3.81273 q 1.37682,-2.33 4.28932,-3.81273 2.96546,-1.53568 7.57251,-1.53568 5.61319,0 8.73751,2.59477 3.17728,2.54182 3.17728,7.73137 v 11.96774 h 3.01841 v 5.66615 z m -11.27933,-4.50115 q 2.06523,0 3.495,-1.00613 1.42978,-1.00614 1.42978,-2.91251 v -3.28318 h -4.18342 q -4.81887,0 -4.81887,3.23023 v 1.05909 q 0,1.42978 1.11205,2.17114 1.11205,0.74136 2.96546,0.74136 z"
         style="font-weight:bold;font-size:52.9546px;font-family:'IBM Plex Mono';-inkscape-font-specification:'IBM Plex Mono Bold';fill:#ac1cf8;fill-opacity:1;stroke:none;stroke-width:2.39963"
         id="path7317" />
      <path
         d="m 284.00774,419.49205 q -4.5541,0 -7.94319,-1.37682 -3.33614,-1.37682 -5.03069,-3.75978 l 4.39523,-4.0775 q 1.58864,1.7475 3.70683,2.75364 2.17114,0.95318 4.92477,0.95318 2.33001,0 3.65387,-0.68841 1.32387,-0.74136 1.32387,-2.22409 0,-1.165 -0.90023,-1.58864 -0.90023,-0.47659 -2.48887,-0.74136 l -4.39523,-0.68841 q -1.85341,-0.26478 -3.44205,-0.79432 -1.58864,-0.5825 -2.75364,-1.53569 -1.165,-0.95318 -1.85341,-2.33 -0.68841,-1.37682 -0.68841,-3.33614 0,-4.28932 3.28319,-6.72523 3.28318,-2.43591 9.2141,-2.43591 4.02455,0 6.83114,1.11204 2.85955,1.05909 4.5541,3.07137 l -3.91864,4.44819 q -1.21796,-1.32387 -3.12433,-2.2241 -1.90636,-0.90023 -4.60705,-0.90023 -4.55409,0 -4.55409,2.75364 0,1.21796 0.90023,1.69455 0.90022,0.42364 2.48886,0.68841 l 4.34228,0.68841 q 1.85341,0.26477 3.44205,0.84727 1.58864,0.52955 2.75364,1.48273 1.21795,0.95319 1.90636,2.33001 0.68841,1.37681 0.68841,3.33614 0,4.28932 -3.33614,6.77818 -3.28318,2.48887 -9.37296,2.48887 z"
         style="font-weight:bold;font-size:52.9546px;font-family:'IBM Plex Mono';-inkscape-font-specification:'IBM Plex Mono Bold';fill:#ac1cf8;fill-opacity:1;stroke:none;stroke-width:2.39963"
         id="path7319" />
      <path
         d="m 320.7052,413.87886 h -0.31773 q -0.90023,2.33 -2.85955,3.9716 -1.90636,1.64159 -5.18955,1.64159 -1.95932,0 -3.60091,-0.63545 -1.64159,-0.68841 -2.80659,-2.01228 -1.16501,-1.32386 -1.85342,-3.23023 -0.63545,-1.90637 -0.63545,-4.39523 v -17.68684 h 7.83728 v 16.62775 q 0,5.29546 4.60705,5.29546 0.90023,0 1.7475,-0.21182 0.90023,-0.26478 1.53569,-0.74137 0.68841,-0.52954 1.11204,-1.27091 0.42364,-0.74136 0.42364,-1.7475 v -17.95161 h 7.83728 v 27.32458 h -7.83728 z"
         style="font-weight:bold;font-size:52.9546px;font-family:'IBM Plex Mono';-inkscape-font-specification:'IBM Plex Mono Bold';fill:#ac1cf8;fill-opacity:1;stroke:none;stroke-width:2.39963"
         id="path7321" />
      <path
         d="m 335.90309,412.76682 h 6.3016 V 397.6218 h -6.3016 v -6.08978 h 14.13888 v 7.73137 h 0.37068 q 0.37068,-1.48273 1.00614,-2.85955 0.68841,-1.42977 1.69455,-2.48886 1.05909,-1.11205 2.54182,-1.7475 1.48273,-0.63546 3.495,-0.63546 h 2.59478 v 7.20183 h -5.82501 q -2.9125,0 -4.39523,1.7475 -1.48273,1.69455 -1.48273,4.18341 v 8.10206 h 9.00228 v 6.08978 h -23.14116 z"
         style="font-weight:bold;font-size:52.9546px;font-family:'IBM Plex Mono';-inkscape-font-specification:'IBM Plex Mono Bold';fill:#ac1cf8;fill-opacity:1;stroke:none;stroke-width:2.39963"
         id="path7323" />
      <path
         d="m 380.38487,419.49205 q -6.8841,0 -10.43206,-3.81273 -3.54795,-3.81273 -3.54795,-10.3791 0,-3.33614 0.90022,-5.98387 0.95319,-2.70069 2.64773,-4.5541 1.74751,-1.90636 4.18342,-2.85955 2.48886,-1.00613 5.56023,-1.00613 3.07137,0 5.50728,1.00613 2.43591,0.95319 4.13046,2.75364 1.69455,1.80046 2.59477,4.39523 0.95319,2.54183 0.95319,5.7191 v 2.33 h -18.69298 v 0.47659 q 0,2.64774 1.64159,4.28933 1.6416,1.58864 4.81887,1.58864 2.43592,0 4.18342,-0.90023 1.7475,-0.95319 3.01841,-2.48887 l 4.23637,4.60705 q -1.58864,1.95932 -4.44819,3.3891 -2.85955,1.42977 -7.25478,1.42977 z m -0.63545,-22.9823 q -2.54183,0 -4.07751,1.58864 -1.48273,1.53568 -1.48273,4.18341 v 0.42364 h 11.01456 v -0.42364 q 0,-2.70068 -1.48273,-4.23636 -1.42977,-1.53569 -3.97159,-1.53569 z"
         style="font-weight:bold;font-size:52.9546px;font-family:'IBM Plex Mono';-inkscape-font-specification:'IBM Plex Mono Bold';fill:#ac1cf8;fill-opacity:1;stroke:none;stroke-width:2.39963"
         id="path7325" />
      <path
         d="m 411.09847,419.49205 q -4.5541,0 -7.94319,-1.37682 -3.33614,-1.37682 -5.03069,-3.75978 l 4.39523,-4.0775 q 1.58864,1.7475 3.70683,2.75364 2.17113,0.95318 4.92477,0.95318 2.33001,0 3.65387,-0.68841 1.32387,-0.74136 1.32387,-2.22409 0,-1.165 -0.90023,-1.58864 -0.90023,-0.47659 -2.48887,-0.74136 l -4.39523,-0.68841 q -1.85341,-0.26478 -3.44205,-0.79432 -1.58864,-0.5825 -2.75364,-1.53569 -1.165,-0.95318 -1.85341,-2.33 -0.68841,-1.37682 -0.68841,-3.33614 0,-4.28932 3.28319,-6.72523 3.28318,-2.43591 9.2141,-2.43591 4.02455,0 6.83114,1.11204 2.85955,1.05909 4.5541,3.07137 l -3.91865,4.44819 q -1.21795,-1.32387 -3.12432,-2.2241 -1.90636,-0.90023 -4.60705,-0.90023 -4.55409,0 -4.55409,2.75364 0,1.21796 0.90023,1.69455 0.90022,0.42364 2.48886,0.68841 l 4.34228,0.68841 q 1.85341,0.26477 3.44205,0.84727 1.58864,0.52955 2.75364,1.48273 1.21795,0.95319 1.90636,2.33001 0.68841,1.37681 0.68841,3.33614 0,4.28932 -3.33614,6.77818 -3.28318,2.48887 -9.37296,2.48887 z"
         style="font-weight:bold;font-size:52.9546px;font-family:'IBM Plex Mono';-inkscape-font-specification:'IBM Plex Mono Bold';fill:#ac1cf8;fill-opacity:1;stroke:none;stroke-width:2.39963"
         id="path7327" />
    </g>
    <text
       xml:space="preserve"
       transform="matrix(3.5400568,0,0,6.3923915,1913.9001,1495.4779)"
       id="text1155"
       style="font-weight:bold;font-size:37.3333px;line-height:0;font-family:'IBM Plex Mono';-inkscape-font-specification:'IBM Plex Mono Bold';white-space:pre;fill:#7a767c;fill-opacity:0.236051;stroke:#909090;stroke-width:4.35024;shape-inside:url(#rect1157)" />
    <text
       xml:space="preserve"
       style="font-weight:bold;font-size:50.8px;line-height:1;font-family:'IBM Plex Mono';-inkscape-font-specification:'IBM Plex Mono Bold';fill:#ffffff;fill-opacity:1;stroke:none;stroke-width:1.151"
       x="-330.71216"
       y="15.176275"
       id="text1163"><tspan
         sodipodi:role="line"
         id="tspan1161"
         style="font-size:50.8px;fill:#ffffff;fill-opacity:1;stroke:none;stroke-width:1.151"
         x="-330.71216"
         y="15.176275">mixed</tspan><tspan
         sodipodi:role="line"
         style="font-size:50.8px;fill:#ffffff;fill-opacity:1;stroke:none;stroke-width:1.151"
         x="-330.71216"
         y="65.976273"
         id="tspan1169">model<tspan
   style="font-size:35.2778px;fill:#ffffff;fill-opacity:1;stroke:none"
   id="tspan1177">for</tspan></tspan><tspan
         sodipodi:role="line"
         style="font-size:50.8px;fill:#ffffff;fill-opacity:1;stroke:none;stroke-width:1.151"
         x="-330.71216"
         y="116.77628"
         id="tspan1173">repeated</tspan><tspan
         sodipodi:role="line"
         style="font-size:50.8px;fill:#ffffff;fill-opacity:1;stroke:none;stroke-width:1.151"
         x="-330.71216"
         y="167.57628"
         id="tspan1175">measures</tspan><tspan
         sodipodi:role="line"
         style="font-size:50.8px;fill:#ffffff;fill-opacity:1;stroke:none;stroke-width:1.151"
         x="-330.71216"
         y="218.37627"
         id="tspan1167" /></text>
    <path
       d="M -361.4808,249.15868 V 215.0549 h 7.86502 v 5.02304 h 0.46265 q 0.79311,-2.37933 2.24715,-4.09774 1.52013,-1.71841 4.22992,-1.71841 4.95695,0 6.08052,5.81615 h 0.39656 q 0.39655,-1.18967 0.99139,-2.24715 0.59483,-1.05748 1.45403,-1.85059 0.85921,-0.79311 2.04887,-1.25576 1.18967,-0.46265 2.77589,-0.46265 7.138,0 7.138,10.50872 v 24.38817 h -7.86502 V 225.7619 q 0,-2.37933 -0.8592,-3.30463 -0.79311,-0.99139 -2.11496,-0.99139 -1.25576,0 -2.18106,0.85921 -0.8592,0.79311 -0.8592,2.51152 v 24.32207 h -7.93111 V 225.7619 q 0,-2.37933 -0.79312,-3.30463 -0.72701,-0.99139 -2.04887,-0.99139 -1.32185,0 -2.24714,0.85921 -0.9253,0.79311 -0.9253,2.51152 v 24.32207 z"
       id="path2475"
       style="font-weight:bold;font-size:66.0926px;line-height:1;font-family:'IBM Plex Mono';-inkscape-font-specification:'IBM Plex Mono Bold';stroke-width:1.49749" />
    <path
       d="m -301.86538,210.69279 q -3.30463,0 -4.62648,-1.32185 -1.25576,-1.38795 -1.25576,-3.30463 v -1.91669 q 0,-1.98278 1.25576,-3.30463 1.32185,-1.32185 4.62648,-1.32185 3.30463,0 4.56039,1.32185 1.32185,1.32185 1.32185,3.30463 v 1.91669 q 0,1.91668 -1.32185,3.30463 -1.25576,1.32185 -4.56039,1.32185 z m -15.73004,30.86524 h 10.83919 v -18.90248 h -10.83919 v -7.60065 h 20.62089 v 26.50313 h 10.04608 v 7.60065 h -30.66697 z"
       id="path2477"
       style="font-weight:bold;font-size:66.0926px;line-height:1;font-family:'IBM Plex Mono';-inkscape-font-specification:'IBM Plex Mono Bold';stroke-width:1.49749" />
    <path
       d="m -282.63254,249.15868 12.75588,-17.31626 -11.89667,-16.78752 h 11.16965 l 3.63509,5.48569 2.77589,4.4282 h 0.52874 l 2.84198,-4.4282 3.70119,-5.48569 h 10.24435 l -11.89667,16.25878 12.75587,17.845 h -11.23574 l -4.29602,-6.41098 -2.97416,-4.56039 h -0.52874 l -2.90808,4.56039 -4.36211,6.41098 z"
       id="path2479"
       style="font-weight:bold;font-size:66.0926px;line-height:1;font-family:'IBM Plex Mono';-inkscape-font-specification:'IBM Plex Mono Bold';stroke-width:1.49749" />
    <path
       d="m -223.74413,249.95179 q -8.59204,0 -13.02024,-4.75866 -4.42821,-4.75867 -4.42821,-12.95415 0,-4.16384 1.12358,-7.46847 1.18966,-3.37072 3.30463,-5.68396 2.18105,-2.37933 5.22131,-3.569 3.10635,-1.25576 6.93972,-1.25576 3.83337,0 6.87363,1.25576 3.04026,1.18967 5.15523,3.43681 2.11496,2.24715 3.23853,5.48569 1.18967,3.17244 1.18967,7.138 v 2.90808 h -23.33069 v 0.59483 q 0,3.30463 2.04887,5.3535 2.04887,1.98278 6.01443,1.98278 3.04026,0 5.22132,-1.12358 2.18105,-1.18966 3.76727,-3.10635 l 5.28741,5.75006 q -1.98278,2.44542 -5.55178,4.22992 -3.569,1.7845 -9.05468,1.7845 z m -0.79311,-28.68418 q -3.17245,0 -5.08913,1.98277 -1.8506,1.91669 -1.8506,5.22132 v 0.52874 h 13.74726 v -0.52874 q 0,-3.37072 -1.85059,-5.28741 -1.7845,-1.91668 -4.95694,-1.91668 z"
       id="path2481"
       style="font-weight:bold;font-size:66.0926px;line-height:1;font-family:'IBM Plex Mono';-inkscape-font-specification:'IBM Plex Mono Bold';stroke-width:1.49749" />
    <path
       d="m -178.86736,242.94598 h -0.46265 q -1.32185,3.10635 -3.70118,5.08913 -2.31325,1.91668 -6.41099,1.91668 -2.84198,0 -5.22131,-1.05748 -2.31324,-1.05748 -4.03165,-3.23854 -1.65232,-2.18105 -2.6437,-5.55177 -0.9253,-3.37073 -0.9253,-7.99721 0,-4.62648 0.9253,-7.9972 0.99138,-3.37073 2.6437,-5.55178 1.71841,-2.18106 4.03165,-3.23854 2.37933,-1.05748 5.22131,-1.05748 2.04887,0 3.6351,0.52874 1.58622,0.52874 2.77589,1.45404 1.25575,0.92529 2.11496,2.24715 0.9253,1.25576 1.58622,2.77589 h 0.46265 v -21.01745 h 9.7817 v 48.90852 h -9.7817 z m -6.34489,-0.59484 q 2.57761,0 4.4282,-1.25576 1.91669,-1.25575 1.91669,-3.96555 v -10.04608 q 0,-2.70979 -1.91669,-3.96555 -1.85059,-1.25576 -4.4282,-1.25576 -3.30463,0 -5.08913,2.04887 -1.7845,1.98278 -1.7845,5.55178 v 5.28741 q 0,3.569 1.7845,5.61787 1.7845,1.98277 5.08913,1.98277 z"
       id="path2483"
       style="font-weight:bold;font-size:66.0926px;line-height:1;font-family:'IBM Plex Mono';-inkscape-font-specification:'IBM Plex Mono Bold';stroke-width:1.49749" />
    <path
       d="M -361.4808,315.25128 V 281.1475 h 7.86502 v 5.02304 h 0.46265 q 0.79311,-2.37934 2.24715,-4.09774 1.52013,-1.71841 4.22992,-1.71841 4.95695,0 6.08052,5.81615 h 0.39656 q 0.39655,-1.18967 0.99139,-2.24715 0.59483,-1.05748 1.45403,-1.85059 0.85921,-0.79312 2.04887,-1.25576 1.18967,-0.46265 2.77589,-0.46265 7.138,0 7.138,10.50872 v 24.38817 h -7.86502 V 291.8545 q 0,-2.37933 -0.8592,-3.30463 -0.79311,-0.99139 -2.11496,-0.99139 -1.25576,0 -2.18106,0.85921 -0.8592,0.79311 -0.8592,2.51151 v 24.32208 h -7.93111 V 291.8545 q 0,-2.37933 -0.79312,-3.30463 -0.72701,-0.99139 -2.04887,-0.99139 -1.32185,0 -2.24714,0.85921 -0.9253,0.79311 -0.9253,2.51151 v 24.32208 z"
       id="path2485"
       style="font-weight:bold;font-size:66.0926px;line-height:1;font-family:'IBM Plex Mono';-inkscape-font-specification:'IBM Plex Mono Bold';stroke-width:1.49749" />
    <path
       d="m -303.98034,316.04439 q -3.96556,0 -7.138,-1.18967 -3.17245,-1.25576 -5.4196,-3.569 -2.18105,-2.31324 -3.37072,-5.61787 -1.18966,-3.30463 -1.18966,-7.46846 0,-4.16383 1.18966,-7.46846 1.18967,-3.30463 3.37072,-5.61787 2.24715,-2.31325 5.4196,-3.50291 3.17244,-1.25576 7.138,-1.25576 3.96555,0 7.138,1.25576 3.17244,1.18966 5.3535,3.50291 2.24715,2.31324 3.43681,5.61787 1.18967,3.30463 1.18967,7.46846 0,4.16383 -1.18967,7.46846 -1.18966,3.30463 -3.43681,5.61787 -2.18106,2.31324 -5.3535,3.569 -3.17245,1.18967 -7.138,1.18967 z m 0,-7.27018 q 3.30463,0 5.15522,-2.04888 1.85059,-2.04887 1.85059,-5.81614 v -5.4196 q 0,-3.76727 -1.85059,-5.81615 -1.85059,-2.04887 -5.15522,-2.04887 -3.30463,0 -5.15522,2.04887 -1.8506,2.04888 -1.8506,5.81615 v 5.4196 q 0,3.76727 1.8506,5.81614 1.85059,2.04888 5.15522,2.04888 z"
       id="path2487"
       style="font-weight:bold;font-size:66.0926px;line-height:1;font-family:'IBM Plex Mono';-inkscape-font-specification:'IBM Plex Mono Bold';stroke-width:1.49749" />
    <path
       d="m -258.17827,309.03858 h -0.46265 q -1.32185,3.10635 -3.70119,5.08913 -2.31324,1.91668 -6.41098,1.91668 -2.84198,0 -5.22131,-1.05748 -2.31325,-1.05748 -4.03165,-3.23854 -1.65232,-2.18105 -2.64371,-5.55178 -0.92529,-3.37072 -0.92529,-7.9972 0,-4.62648 0.92529,-7.9972 0.99139,-3.37073 2.64371,-5.55178 1.7184,-2.18106 4.03165,-3.23854 2.37933,-1.05748 5.22131,-1.05748 2.04887,0 3.63509,0.52874 1.58623,0.52874 2.77589,1.45404 1.25576,0.92529 2.11497,2.24714 0.92529,1.25576 1.58622,2.77589 h 0.46265 v -21.01744 h 9.7817 v 48.90852 h -9.7817 z m -6.34489,-0.59484 q 2.57761,0 4.4282,-1.25576 1.91669,-1.25576 1.91669,-3.96555 v -10.04608 q 0,-2.70979 -1.91669,-3.96555 -1.85059,-1.25576 -4.4282,-1.25576 -3.30463,0 -5.08913,2.04887 -1.7845,1.98278 -1.7845,5.55178 v 5.2874 q 0,3.569 1.7845,5.61787 1.7845,1.98278 5.08913,1.98278 z"
       id="path2489"
       style="font-weight:bold;font-size:66.0926px;line-height:1;font-family:'IBM Plex Mono';-inkscape-font-specification:'IBM Plex Mono Bold';stroke-width:1.49749" />
    <path
       d="m -223.74413,316.04439 q -8.59204,0 -13.02024,-4.75867 -4.42821,-4.75866 -4.42821,-12.95415 0,-4.16383 1.12358,-7.46846 1.18966,-3.37072 3.30463,-5.68396 2.18105,-2.37934 5.22131,-3.569 3.10635,-1.25576 6.93972,-1.25576 3.83337,0 6.87363,1.25576 3.04026,1.18966 5.15523,3.43681 2.11496,2.24715 3.23853,5.48569 1.18967,3.17244 1.18967,7.138 v 2.90807 h -23.33069 v 0.59484 q 0,3.30463 2.04887,5.3535 2.04887,1.98277 6.01443,1.98277 3.04026,0 5.22132,-1.12357 2.18105,-1.18967 3.76727,-3.10635 l 5.28741,5.75005 q -1.98278,2.44543 -5.55178,4.22993 -3.569,1.7845 -9.05468,1.7845 z m -0.79311,-28.68419 q -3.17245,0 -5.08913,1.98278 -1.8506,1.91669 -1.8506,5.22132 v 0.52874 h 13.74726 v -0.52874 q 0,-3.37073 -1.85059,-5.28741 -1.7845,-1.91669 -4.95694,-1.91669 z"
       id="path2491"
       style="font-weight:bold;font-size:66.0926px;line-height:1;font-family:'IBM Plex Mono';-inkscape-font-specification:'IBM Plex Mono Bold';stroke-width:1.49749" />
    <path
       d="m -200.34746,307.65063 h 10.44264 v -33.70722 h -10.44264 v -7.60065 h 20.22434 v 41.30787 h 10.44263 v 7.60065 h -30.66697 z"
       id="path2493"
       style="font-weight:bold;font-size:66.0926px;line-height:1;font-family:'IBM Plex Mono';-inkscape-font-specification:'IBM Plex Mono Bold';stroke-width:1.49749" />
    <g
       id="g3494"
       transform="translate(545.09569,-18.659344)"
       style="fill:#b3b3b3">
      <path
         d="m -161.92756,309.97304 h 6.97645 V 296.8463 h -7.43543 v -5.27823 h 7.43543 v -3.44233 q 0,-3.02925 1.74411,-4.91106 1.79002,-1.9277 5.50773,-1.9277 h 8.0321 v 5.27824 h -8.49108 v 5.00285 h 8.49108 v 5.27823 h -8.49108 v 13.12674 h 7.43543 v 5.27824 h -21.20474 z"
         style="font-weight:bold;font-size:45.8977px;line-height:1;font-family:'IBM Plex Mono';-inkscape-font-specification:'IBM Plex Mono Bold';stroke-width:1.49749;fill:#b3b3b3"
         id="path2495" />
      <path
         d="m -123.87844,315.80205 q -2.75386,0 -4.95695,-0.82616 -2.20309,-0.87205 -3.76361,-2.47847 -1.51463,-1.60642 -2.34079,-3.90131 -0.82616,-2.29488 -0.82616,-5.18644 0,-2.89155 0.82616,-5.18644 0.82616,-2.29488 2.34079,-3.9013 1.56052,-1.60642 3.76361,-2.43258 2.20309,-0.87206 4.95695,-0.87206 2.75386,0 4.95695,0.87206 2.20309,0.82616 3.71772,2.43258 1.56052,1.60642 2.38668,3.9013 0.82615,2.29489 0.82615,5.18644 0,2.89156 -0.82615,5.18644 -0.82616,2.29489 -2.38668,3.90131 -1.51463,1.60642 -3.71772,2.47847 -2.20309,0.82616 -4.95695,0.82616 z m 0,-5.04874 q 2.29488,0 3.58002,-1.42283 1.28514,-1.42283 1.28514,-4.039 v -3.76361 q 0,-2.61617 -1.28514,-4.039 -1.28514,-1.42283 -3.58002,-1.42283 -2.29489,0 -3.58002,1.42283 -1.28514,1.42283 -1.28514,4.039 v 3.76361 q 0,2.61617 1.28514,4.039 1.28513,1.42283 3.58002,1.42283 z"
         style="font-weight:bold;font-size:45.8977px;line-height:1;font-family:'IBM Plex Mono';-inkscape-font-specification:'IBM Plex Mono Bold';stroke-width:1.49749;fill:#b3b3b3"
         id="path2497" />
      <path
         d="m -106.71276,309.97304 h 5.46183 V 296.8463 h -5.46183 v -5.27823 h 12.254685 v 6.70106 h 0.321283 q 0.321284,-1.28514 0.872057,-2.47848 0.59667,-1.23923 1.468726,-2.15719 0.917954,-0.96385 2.20309,-1.51462 1.285136,-0.55077 3.029248,-0.55077 h 2.248988 v 6.24208 h -5.048748 q -2.524373,0 -3.809509,1.51463 -1.285135,1.46872 -1.285135,3.62592 v 7.02234 h 7.802609 v 5.27824 h -20.057294 z"
         style="font-weight:bold;font-size:45.8977px;line-height:1;font-family:'IBM Plex Mono';-inkscape-font-specification:'IBM Plex Mono Bold';stroke-width:1.49749;fill:#b3b3b3"
         id="path2499" />
    </g>
    <path
       d="m -358.57273,373.74323 h 7.86502 v -18.90248 h -7.86502 v -7.60065 h 17.64673 v 9.64952 h 0.46265 q 0.46264,-1.8506 1.25576,-3.569 0.8592,-1.7845 2.11496,-3.10636 1.32185,-1.38794 3.17244,-2.18105 1.8506,-0.79311 4.36211,-0.79311 h 3.23854 v 8.98859 h -7.27018 q -3.6351,0 -5.48569,2.18106 -1.85059,2.11496 -1.85059,5.22131 v 10.11217 h 11.23574 v 7.60065 h -28.88247 z"
       id="path2501"
       style="font-weight:bold;font-size:66.0926px;line-height:1;font-family:'IBM Plex Mono';-inkscape-font-specification:'IBM Plex Mono Bold';stroke-width:1.49749" />
    <path
       d="m -303.05505,382.13699 q -8.59203,0 -13.02024,-4.75867 -4.4282,-4.75867 -4.4282,-12.95415 0,-4.16383 1.12357,-7.46846 1.18967,-3.37072 3.30463,-5.68396 2.18106,-2.37934 5.22132,-3.569 3.10635,-1.25576 6.93972,-1.25576 3.83337,0 6.87363,1.25576 3.04026,1.18966 5.15522,3.43681 2.11497,2.24715 3.23854,5.48569 1.18967,3.17244 1.18967,7.138 v 2.90807 h -23.33069 v 0.59483 q 0,3.30463 2.04887,5.3535 2.04887,1.98278 6.01443,1.98278 3.04026,0 5.22131,-1.12357 2.18106,-1.18967 3.76728,-3.10635 l 5.28741,5.75005 q -1.98278,2.44543 -5.55178,4.22993 -3.569,1.7845 -9.05469,1.7845 z m -0.79311,-28.68419 q -3.17244,0 -5.08913,1.98278 -1.85059,1.91668 -1.85059,5.22131 v 0.52875 h 13.74726 v -0.52875 q 0,-3.37072 -1.85059,-5.2874 -1.7845,-1.91669 -4.95695,-1.91669 z"
       id="path2503"
       style="font-weight:bold;font-size:66.0926px;line-height:1;font-family:'IBM Plex Mono';-inkscape-font-specification:'IBM Plex Mono Bold';stroke-width:1.49749" />
    <path
       d="m -280.2532,347.2401 h 9.7817 v 6.2127 h 0.46265 q 1.25576,-3.04026 3.63509,-5.02304 2.37934,-1.98277 6.47708,-1.98277 2.84198,0 5.15522,1.05748 2.37933,1.05748 4.03165,3.23853 1.71841,2.18106 2.6437,5.55178 0.99139,3.37073 0.99139,7.99721 0,4.62648 -0.99139,7.9972 -0.92529,3.37072 -2.6437,5.55178 -1.65232,2.18106 -4.03165,3.23854 -2.31324,1.05748 -5.15522,1.05748 -4.09774,0 -6.47708,-1.91669 -2.37933,-1.98277 -3.63509,-5.08913 h -0.46265 v 19.43123 h -9.7817 z m 16.12659,27.29624 q 3.30463,0 5.08913,-1.98278 1.7845,-2.04887 1.7845,-5.61787 v -5.28741 q 0,-3.569 -1.7845,-5.55177 -1.7845,-2.04888 -5.08913,-2.04888 -2.57761,0 -4.49429,1.25576 -1.8506,1.25576 -1.8506,3.96556 v 10.04608 q 0,2.70979 1.8506,3.96555 1.91668,1.25576 4.49429,1.25576 z"
       id="path2505"
       style="font-weight:bold;font-size:66.0926px;line-height:1;font-family:'IBM Plex Mono';-inkscape-font-specification:'IBM Plex Mono Bold';stroke-width:1.49749" />
    <path
       d="m -223.74413,382.13699 q -8.59204,0 -13.02024,-4.75867 -4.42821,-4.75867 -4.42821,-12.95415 0,-4.16383 1.12358,-7.46846 1.18966,-3.37072 3.30463,-5.68396 2.18105,-2.37934 5.22131,-3.569 3.10635,-1.25576 6.93972,-1.25576 3.83337,0 6.87363,1.25576 3.04026,1.18966 5.15523,3.43681 2.11496,2.24715 3.23853,5.48569 1.18967,3.17244 1.18967,7.138 v 2.90807 h -23.33069 v 0.59483 q 0,3.30463 2.04887,5.3535 2.04887,1.98278 6.01443,1.98278 3.04026,0 5.22132,-1.12357 2.18105,-1.18967 3.76727,-3.10635 l 5.28741,5.75005 q -1.98278,2.44543 -5.55178,4.22993 -3.569,1.7845 -9.05468,1.7845 z m -0.79311,-28.68419 q -3.17245,0 -5.08913,1.98278 -1.8506,1.91668 -1.8506,5.22131 v 0.52875 h 13.74726 v -0.52875 q 0,-3.37072 -1.85059,-5.2874 -1.7845,-1.91669 -4.95694,-1.91669 z"
       id="path2507"
       style="font-weight:bold;font-size:66.0926px;line-height:1;font-family:'IBM Plex Mono';-inkscape-font-specification:'IBM Plex Mono Bold';stroke-width:1.49749" />
    <path
       d="m -172.65466,381.34388 q -3.04026,0 -4.89085,-1.52013 -1.85059,-1.58622 -2.18105,-4.4943 h -0.33047 q -0.92529,3.37072 -3.70118,5.08913 -2.7098,1.71841 -6.67536,1.71841 -4.95694,0 -7.9972,-2.6437 -2.97417,-2.7098 -2.97417,-7.53456 0,-5.3535 3.89947,-7.93111 3.89946,-2.57761 11.43402,-2.57761 h 5.48568 v -1.71841 q 0,-3.04026 -1.45404,-4.56039 -1.38794,-1.58622 -4.75866,-1.58622 -3.10635,0 -5.02304,1.18966 -1.91669,1.18967 -3.30463,3.10636 l -5.3535,-4.75867 q 1.71841,-2.90808 5.3535,-4.75867 3.70119,-1.91668 9.45124,-1.91668 7.00582,0 10.90528,3.23853 3.96556,3.17245 3.96556,9.64952 v 14.93693 h 3.76727 v 7.07191 z m -14.07772,-5.61787 q 2.57761,0 4.36211,-1.25576 1.7845,-1.25576 1.7845,-3.6351 v -4.09774 h -5.22131 q -6.01443,0 -6.01443,4.03165 v 1.32185 q 0,1.7845 1.38794,2.7098 1.38795,0.9253 3.70119,0.9253 z"
       id="path2509"
       style="font-weight:bold;font-size:66.0926px;line-height:1;font-family:'IBM Plex Mono';-inkscape-font-specification:'IBM Plex Mono Bold';stroke-width:1.49749" />
    <path
       d="m -142.71481,381.34388 q -5.28741,0 -7.86502,-2.77589 -2.57761,-2.77589 -2.57761,-7.07191 v -16.65533 h -9.25297 v -7.60065 h 6.01443 q 2.18106,0 3.10635,-0.85921 0.9253,-0.8592 0.9253,-3.17244 v -7.99721 h 8.98859 v 12.02886 h 13.28461 v 7.60065 h -13.28461 v 18.90248 h 13.28461 v 7.60065 z"
       id="path2511"
       style="font-weight:bold;font-size:66.0926px;line-height:1;font-family:'IBM Plex Mono';-inkscape-font-specification:'IBM Plex Mono Bold';stroke-width:1.49749" />
    <path
       d="m -104.77776,382.13699 q -8.59204,0 -13.02024,-4.75867 -4.42821,-4.75867 -4.42821,-12.95415 0,-4.16383 1.12358,-7.46846 1.18966,-3.37072 3.30463,-5.68396 2.18105,-2.37934 5.22131,-3.569 3.10635,-1.25576 6.93972,-1.25576 3.83337,0 6.873634,1.25576 3.04026,1.18966 5.155223,3.43681 2.114963,2.24715 3.238537,5.48569 1.189667,3.17244 1.189667,7.138 v 2.90807 H -112.5106 v 0.59483 q 0,3.30463 2.04888,5.3535 2.04887,1.98278 6.01442,1.98278 3.04026,0 5.221316,-1.12357 2.181056,-1.18967 3.767278,-3.10635 l 5.287408,5.75005 q -1.982778,2.44543 -5.551778,4.22993 -3.569,1.7845 -9.054684,1.7845 z m -0.79311,-28.68419 q -3.17245,0 -5.08913,1.98278 -1.8506,1.91668 -1.8506,5.22131 v 0.52875 h 13.747264 v -0.52875 q 0,-3.37072 -1.850594,-5.2874 -1.7845,-1.91669 -4.95694,-1.91669 z"
       id="path2513"
       style="font-weight:bold;font-size:66.0926px;line-height:1;font-family:'IBM Plex Mono';-inkscape-font-specification:'IBM Plex Mono Bold';stroke-width:1.49749" />
    <path
       d="m -59.90099,375.13117 h -0.462648 q -1.321852,3.10636 -3.701186,5.08913 -2.313241,1.91669 -6.410982,1.91669 -2.841982,0 -5.221315,-1.05748 -2.313241,-1.05748 -4.031649,-3.23854 -1.652315,-2.18106 -2.643703,-5.55178 -0.925297,-3.37072 -0.925297,-7.9972 0,-4.62648 0.925297,-7.99721 0.991388,-3.37072 2.643703,-5.55178 1.718408,-2.18105 4.031649,-3.23853 2.379333,-1.05748 5.221315,-1.05748 2.048871,0 3.635093,0.52874 1.586222,0.52874 2.775889,1.45403 1.25576,0.9253 2.114963,2.24715 0.925297,1.25576 1.586223,2.77589 h 0.462648 v -21.01744 h 9.781704 v 48.90852 h -9.781704 z m -6.34489,-0.59483 q 2.577612,0 4.428204,-1.25576 1.916686,-1.25576 1.916686,-3.96555 v -10.04608 q 0,-2.7098 -1.916686,-3.96556 -1.850592,-1.25576 -4.428204,-1.25576 -3.304629,0 -5.08913,2.04888 -1.7845,1.98277 -1.7845,5.55177 v 5.28741 q 0,3.569 1.7845,5.61787 1.784501,1.98278 5.08913,1.98278 z"
       id="path2515"
       style="font-weight:bold;font-size:66.0926px;line-height:1;font-family:'IBM Plex Mono';-inkscape-font-specification:'IBM Plex Mono Bold';stroke-width:1.49749" />
    <path
       d="M -361.4808,447.43648 V 413.3327 h 7.86502 v 5.02303 h 0.46265 q 0.79311,-2.37933 2.24715,-4.09774 1.52013,-1.71841 4.22992,-1.71841 4.95695,0 6.08052,5.81615 h 0.39656 q 0.39655,-1.18966 0.99139,-2.24715 0.59483,-1.05748 1.45403,-1.85059 0.85921,-0.79311 2.04887,-1.25576 1.18967,-0.46265 2.77589,-0.46265 7.138,0 7.138,10.50873 v 24.38817 h -7.86502 V 424.0397 q 0,-2.37934 -0.8592,-3.30463 -0.79311,-0.99139 -2.11496,-0.99139 -1.25576,0 -2.18106,0.8592 -0.8592,0.79311 -0.8592,2.51152 v 24.32208 h -7.93111 V 424.0397 q 0,-2.37934 -0.79312,-3.30463 -0.72701,-0.99139 -2.04887,-0.99139 -1.32185,0 -2.24714,0.8592 -0.9253,0.79311 -0.9253,2.51152 v 24.32208 z"
       id="path2517"
       style="font-weight:bold;font-size:66.0926px;line-height:1;font-family:'IBM Plex Mono';-inkscape-font-specification:'IBM Plex Mono Bold';stroke-width:1.49749" />
    <path
       d="m -303.05505,448.22959 q -8.59203,0 -13.02024,-4.75867 -4.4282,-4.75867 -4.4282,-12.95415 0,-4.16383 1.12357,-7.46846 1.18967,-3.37073 3.30463,-5.68397 2.18106,-2.37933 5.22132,-3.569 3.10635,-1.25576 6.93972,-1.25576 3.83337,0 6.87363,1.25576 3.04026,1.18967 5.15522,3.43682 2.11497,2.24715 3.23854,5.48568 1.18967,3.17245 1.18967,7.138 v 2.90808 h -23.33069 v 0.59483 q 0,3.30463 2.04887,5.3535 2.04887,1.98278 6.01443,1.98278 3.04026,0 5.22131,-1.12357 2.18106,-1.18967 3.76728,-3.10636 l 5.28741,5.75006 q -1.98278,2.44543 -5.55178,4.22993 -3.569,1.7845 -9.05469,1.7845 z m -0.79311,-28.68419 q -3.17244,0 -5.08913,1.98278 -1.85059,1.91668 -1.85059,5.22131 v 0.52874 h 13.74726 v -0.52874 q 0,-3.37072 -1.85059,-5.28741 -1.7845,-1.91668 -4.95695,-1.91668 z"
       id="path2519"
       style="font-weight:bold;font-size:66.0926px;line-height:1;font-family:'IBM Plex Mono';-inkscape-font-specification:'IBM Plex Mono Bold';stroke-width:1.49749" />
    <path
       d="m -251.96557,447.43648 q -3.04026,0 -4.89085,-1.52013 -1.85059,-1.58623 -2.18106,-4.4943 h -0.33046 q -0.9253,3.37072 -3.70119,5.08913 -2.70979,1.71841 -6.67535,1.71841 -4.95694,0 -7.9972,-2.64371 -2.97417,-2.70979 -2.97417,-7.53455 0,-5.3535 3.89946,-7.93111 3.89947,-2.57762 11.43402,-2.57762 h 5.48569 v -1.7184 q 0,-3.04026 -1.45404,-4.56039 -1.38794,-1.58623 -4.75867,-1.58623 -3.10635,0 -5.02303,1.18967 -1.91669,1.18967 -3.30463,3.10635 l -5.3535,-4.75866 q 1.7184,-2.90808 5.3535,-4.75867 3.70118,-1.91669 9.45124,-1.91669 7.00581,0 10.90528,3.23854 3.96555,3.17245 3.96555,9.64952 v 14.93693 h 3.76728 v 7.07191 z m -14.07772,-5.61788 q 2.57761,0 4.36211,-1.25575 1.7845,-1.25576 1.7845,-3.6351 v -4.09774 h -5.22132 q -6.01442,0 -6.01442,4.03165 v 1.32185 q 0,1.7845 1.38794,2.7098 1.38795,0.92529 3.70119,0.92529 z"
       id="path2521"
       style="font-weight:bold;font-size:66.0926px;line-height:1;font-family:'IBM Plex Mono';-inkscape-font-specification:'IBM Plex Mono Bold';stroke-width:1.49749" />
    <path
       d="m -225.06598,448.22959 q -5.68397,0 -9.91389,-1.71841 -4.16384,-1.71841 -6.2788,-4.69258 l 5.48568,-5.08913 q 1.98278,2.18106 4.62649,3.43682 2.70979,1.18967 6.14661,1.18967 2.90807,0 4.56039,-0.85921 1.65231,-0.92529 1.65231,-2.77589 0,-1.45403 -1.12357,-1.98277 -1.12358,-0.59484 -3.10635,-0.9253 l -5.48569,-0.8592 q -2.31324,-0.33047 -4.29602,-0.99139 -1.98278,-0.72702 -3.43681,-1.91669 -1.45404,-1.18967 -2.31324,-2.90807 -0.85921,-1.71841 -0.85921,-4.16384 0,-5.3535 4.09774,-8.39376 4.09774,-3.04026 11.50011,-3.04026 5.02304,0 8.52595,1.38795 3.569,1.32185 5.68396,3.83337 l -4.89085,5.55178 q -1.52013,-1.65232 -3.89946,-2.77589 -2.37934,-1.12358 -5.75006,-1.12358 -5.68396,0 -5.68396,3.43682 0,1.52013 1.12357,2.11496 1.12358,0.52874 3.10635,0.85921 l 5.4196,0.8592 q 2.31324,0.33046 4.29602,1.05748 1.98277,0.66093 3.43681,1.85059 1.52013,1.18967 2.37934,2.90808 0.8592,1.71841 0.8592,4.16383 0,5.3535 -4.16383,8.45985 -4.09775,3.10636 -11.69839,3.10636 z"
       id="path2523"
       style="font-weight:bold;font-size:66.0926px;line-height:1;font-family:'IBM Plex Mono';-inkscape-font-specification:'IBM Plex Mono Bold';stroke-width:1.49749" />
    <path
       d="m -179.26392,441.22377 h -0.39655 q -1.12358,2.90808 -3.569,4.95695 -2.37934,2.04887 -6.47708,2.04887 -2.44542,0 -4.49429,-0.79311 -2.04887,-0.85921 -3.50291,-2.51152 -1.45404,-1.65232 -2.31324,-4.03165 -0.79311,-2.37933 -0.79311,-5.48569 V 413.3327 h 9.7817 v 20.75307 q 0,6.60926 5.75006,6.60926 1.12357,0 2.18105,-0.26437 1.12358,-0.33046 1.91669,-0.9253 0.8592,-0.66092 1.38794,-1.58622 0.52874,-0.92529 0.52874,-2.18105 V 413.3327 h 9.78171 v 34.10378 h -9.78171 z"
       id="path2525"
       style="font-weight:bold;font-size:66.0926px;line-height:1;font-family:'IBM Plex Mono';-inkscape-font-specification:'IBM Plex Mono Bold';stroke-width:1.49749" />
    <path
       d="m -160.29544,439.83583 h 7.86502 v -18.90249 h -7.86502 v -7.60064 h 17.64672 v 9.64951 h 0.46265 q 0.46265,-1.85059 1.25576,-3.569 0.8592,-1.7845 2.11496,-3.10635 1.32185,-1.38794 3.17245,-2.18105 1.85059,-0.79311 4.36211,-0.79311 h 3.23853 v 8.98859 h -7.27018 q -3.63509,0 -5.48569,2.18105 -1.85059,2.11497 -1.85059,5.22132 v 10.11217 h 11.23574 v 7.60065 h -28.88246 z"
       id="path2527"
       style="font-weight:bold;font-size:66.0926px;line-height:1;font-family:'IBM Plex Mono';-inkscape-font-specification:'IBM Plex Mono Bold';stroke-width:1.49749" />
    <path
       d="m -104.77776,448.22959 q -8.59204,0 -13.02024,-4.75867 -4.42821,-4.75867 -4.42821,-12.95415 0,-4.16383 1.12358,-7.46846 1.18966,-3.37073 3.30463,-5.68397 2.18105,-2.37933 5.22131,-3.569 3.10635,-1.25576 6.93972,-1.25576 3.83337,0 6.873634,1.25576 3.04026,1.18967 5.155223,3.43682 2.114963,2.24715 3.238537,5.48568 1.189667,3.17245 1.189667,7.138 v 2.90808 H -112.5106 v 0.59483 q 0,3.30463 2.04888,5.3535 2.04887,1.98278 6.01442,1.98278 3.04026,0 5.221316,-1.12357 2.181056,-1.18967 3.767278,-3.10636 l 5.287408,5.75006 q -1.982778,2.44543 -5.551778,4.22993 -3.569,1.7845 -9.054684,1.7845 z m -0.79311,-28.68419 q -3.17245,0 -5.08913,1.98278 -1.8506,1.91668 -1.8506,5.22131 v 0.52874 h 13.747264 v -0.52874 q 0,-3.37072 -1.850594,-5.28741 -1.7845,-1.91668 -4.95694,-1.91668 z"
       id="path2529"
       style="font-weight:bold;font-size:66.0926px;line-height:1;font-family:'IBM Plex Mono';-inkscape-font-specification:'IBM Plex Mono Bold';stroke-width:1.49749" />
    <path
       d="m -66.444157,448.22959 q -5.683964,0 -9.91389,-1.71841 -4.163834,-1.71841 -6.278797,-4.69258 l 5.485686,-5.08913 q 1.982778,2.18106 4.626482,3.43682 2.709796,1.18967 6.146611,1.18967 2.908075,0 4.560389,-0.85921 1.652315,-0.92529 1.652315,-2.77589 0,-1.45403 -1.123574,-1.98277 -1.123574,-0.59484 -3.106352,-0.9253 l -5.485685,-0.8592 q -2.313241,-0.33047 -4.296019,-0.99139 -1.982778,-0.72702 -3.436815,-1.91669 -1.454038,-1.18967 -2.313241,-2.90807 -0.859204,-1.71841 -0.859204,-4.16384 0,-5.3535 4.097741,-8.39376 4.097741,-3.04026 11.500112,-3.04026 5.023037,0 8.525945,1.38795 3.569,1.32185 5.683964,3.83337 l -4.890853,5.55178 q -1.520129,-1.65232 -3.899463,-2.77589 -2.379333,-1.12358 -5.750056,-1.12358 -5.683963,0 -5.683963,3.43682 0,1.52013 1.123574,2.11496 1.123574,0.52874 3.106352,0.85921 l 5.419593,0.8592 q 2.313241,0.33046 4.296019,1.05748 1.982778,0.66093 3.436815,1.85059 1.52013,1.18967 2.379333,2.90808 0.859204,1.71841 0.859204,4.16383 0,5.3535 -4.163834,8.45985 -4.097741,3.10636 -11.698389,3.10636 z"
       id="path2531"
       style="font-weight:bold;font-size:66.0926px;line-height:1;font-family:'IBM Plex Mono';-inkscape-font-specification:'IBM Plex Mono Bold';stroke-width:1.49749" />
  </g>
</svg>
